<svg xmlns="http://www.w3.org/2000/svg" xmlns:xlink="http://www.w3.org/1999/xlink" width="200" zoomAndPan="magnify" viewBox="0 0 150 149.999998" height="200" preserveAspectRatio="xMidYMid meet" version="1.0"><defs><g/></defs><rect x="-15" width="180" fill="#ffffff" y="-15" height="179.999997" fill-opacity="1"/><rect x="-15" width="180" fill="#0097b2" y="-15" height="179.999997" fill-opacity="1"/><g fill="#ffffff" fill-opacity="1"><g transform="translate(25.254129, 81.732198)"><g><path d="M 37.734375 -19.84375 C 38.535156 -17.175781 39.351562 -14.472656 40.1875 -11.734375 C 41.03125 -9.003906 42.054688 -6.472656 43.265625 -4.140625 C 44.484375 -1.816406 46.003906 0.195312 47.828125 1.90625 C 49.660156 3.613281 51.976562 4.75 54.78125 5.3125 C 52.101562 5.125 49.816406 4.253906 47.921875 2.703125 C 46.035156 1.148438 44.4375 -0.753906 43.125 -3.015625 C 41.820312 -5.285156 40.765625 -7.722656 39.953125 -10.328125 C 39.148438 -12.941406 38.5625 -15.335938 38.1875 -17.515625 C 38.007812 -16.023438 37.71875 -14.378906 37.3125 -12.578125 C 36.90625 -10.773438 36.390625 -8.988281 35.765625 -7.21875 C 35.148438 -5.445312 34.421875 -3.769531 33.578125 -2.1875 C 32.742188 -0.601562 31.765625 0.742188 30.640625 1.859375 L 22.734375 3.265625 C 20.054688 1.773438 17.707031 -0.347656 15.6875 -3.109375 C 13.675781 -5.878906 11.910156 -9.019531 10.390625 -12.53125 C 8.867188 -16.039062 7.59375 -19.796875 6.5625 -23.796875 C 5.539062 -27.804688 4.6875 -31.765625 4 -35.671875 C 3.320312 -39.585938 2.8125 -43.363281 2.46875 -47 C 2.125 -50.632812 1.921875 -53.816406 1.859375 -56.546875 L 4.1875 -56.828125 C 4.5 -56.640625 4.765625 -56.1875 4.984375 -55.46875 C 5.203125 -54.757812 5.375 -53.96875 5.5 -53.09375 C 5.625 -52.226562 5.71875 -51.390625 5.78125 -50.578125 C 5.84375 -49.773438 5.875 -49.21875 5.875 -48.90625 L 6.703125 -49.1875 C 6.703125 -49.6875 6.734375 -50.601562 6.796875 -51.9375 C 6.859375 -53.269531 7.015625 -54.632812 7.265625 -56.03125 C 7.515625 -57.425781 7.867188 -58.648438 8.328125 -59.703125 C 8.796875 -60.765625 9.40625 -61.296875 10.15625 -61.296875 C 10.53125 -61.296875 10.914062 -60.332031 11.3125 -58.40625 C 11.71875 -56.476562 12.195312 -53.976562 12.75 -50.90625 C 13.3125 -47.832031 13.9375 -44.351562 14.625 -40.46875 C 15.3125 -36.59375 16.132812 -32.710938 17.09375 -28.828125 C 18.050781 -24.953125 19.148438 -21.226562 20.390625 -17.65625 C 21.640625 -14.082031 23.070312 -11.082031 24.6875 -8.65625 C 25.25 -11.394531 25.976562 -14.363281 26.875 -17.5625 C 27.769531 -20.757812 28.648438 -23.738281 29.515625 -26.5 C 30.390625 -29.257812 31.15625 -31.570312 31.8125 -33.4375 C 32.46875 -35.300781 32.859375 -36.265625 32.984375 -36.328125 L 42.9375 -36.609375 C 43.75 -36.046875 44.492188 -35.035156 45.171875 -33.578125 C 45.859375 -32.117188 46.507812 -30.425781 47.125 -28.5 C 47.75 -26.582031 48.34375 -24.519531 48.90625 -22.3125 C 49.46875 -20.101562 50.054688 -17.957031 50.671875 -15.875 C 51.296875 -13.800781 51.945312 -11.878906 52.625 -10.109375 C 53.3125 -8.335938 54.0625 -6.925781 54.875 -5.875 L 55.703125 -5.78125 C 56.640625 -5.78125 57.585938 -6.367188 58.546875 -7.546875 C 59.515625 -8.722656 60.476562 -10.226562 61.4375 -12.0625 C 62.394531 -13.894531 63.304688 -15.910156 64.171875 -18.109375 C 65.046875 -20.316406 65.835938 -22.460938 66.546875 -24.546875 C 67.265625 -26.628906 67.875 -28.523438 68.375 -30.234375 C 68.875 -31.941406 69.25 -33.195312 69.5 -34 C 69.75 -34.9375 70.007812 -36.226562 70.28125 -37.875 C 70.5625 -39.519531 70.859375 -41.300781 71.171875 -43.21875 C 71.484375 -45.144531 71.804688 -47.085938 72.140625 -49.046875 C 72.484375 -51.003906 72.84375 -52.773438 73.21875 -54.359375 C 73.59375 -55.941406 73.992188 -57.242188 74.421875 -58.265625 C 74.859375 -59.296875 75.328125 -59.8125 75.828125 -59.8125 L 76.296875 -59.71875 C 74.429688 -47.726562 71.757812 -35.925781 68.28125 -24.3125 C 70.207031 -30.03125 71.804688 -35.804688 73.078125 -41.640625 C 74.347656 -47.472656 75.609375 -53.3125 76.859375 -59.15625 L 77.59375 -58.40625 C 77.65625 -58.84375 77.84375 -59.632812 78.15625 -60.78125 C 78.46875 -61.9375 78.820312 -63.117188 79.21875 -64.328125 C 79.625 -65.535156 80.078125 -66.601562 80.578125 -67.53125 C 81.078125 -68.46875 81.578125 -68.9375 82.078125 -68.9375 C 82.441406 -68.9375 82.765625 -68.625 83.046875 -68 C 83.328125 -67.382812 83.53125 -66.671875 83.65625 -65.859375 C 83.78125 -65.054688 83.875 -64.265625 83.9375 -63.484375 C 84 -62.710938 84.03125 -62.203125 84.03125 -61.953125 C 84.03125 -61.765625 83.9375 -61.359375 83.75 -60.734375 C 83.5625 -60.117188 83.4375 -59.6875 83.375 -59.4375 C 82.875 -57.320312 82.265625 -54.398438 81.546875 -50.671875 C 80.835938 -46.953125 79.984375 -42.867188 78.984375 -38.421875 C 77.992188 -33.984375 76.816406 -29.46875 75.453125 -24.875 C 74.210938 -20.46875 72.785156 -16.398438 71.171875 -12.671875 C 72.847656 -16.398438 74.367188 -20.4375 75.734375 -24.78125 C 77.160156 -29.375 78.414062 -33.859375 79.5 -38.234375 C 80.59375 -42.617188 81.539062 -46.671875 82.34375 -50.390625 C 83.15625 -54.117188 83.8125 -57.039062 84.3125 -59.15625 C 84.3125 -55.988281 84.0625 -52.710938 83.5625 -49.328125 C 83.0625 -45.941406 82.40625 -42.539062 81.59375 -39.125 C 80.789062 -35.707031 79.890625 -32.320312 78.890625 -28.96875 C 77.898438 -25.613281 76.941406 -22.445312 76.015625 -19.46875 L 74.625 -18.90625 C 74.0625 -16.925781 73.28125 -14.566406 72.28125 -11.828125 C 71.289062 -9.097656 70.035156 -6.503906 68.515625 -4.046875 C 66.992188 -1.597656 65.222656 0.476562 63.203125 2.1875 C 61.179688 3.894531 58.898438 4.75 56.359375 4.75 C 54.429688 4.75 52.707031 4.328125 51.1875 3.484375 C 49.664062 2.648438 48.300781 1.535156 47.09375 0.140625 C 45.882812 -1.253906 44.828125 -2.851562 43.921875 -4.65625 C 43.023438 -6.457031 42.21875 -8.320312 41.5 -10.25 C 40.789062 -12.175781 40.15625 -14.113281 39.59375 -16.0625 C 39.03125 -18.019531 38.53125 -19.804688 38.09375 -21.421875 C 37.976562 -20.992188 37.859375 -20.46875 37.734375 -19.84375 Z M 55.703125 3.171875 C 57.628906 3.171875 59.445312 2.5625 61.15625 1.34375 C 62.863281 0.132812 64.460938 -1.492188 65.953125 -3.546875 C 64.335938 -1.929688 62.722656 -0.535156 61.109375 0.640625 C 59.492188 1.828125 57.691406 2.421875 55.703125 2.421875 C 54.085938 2.421875 52.613281 1.96875 51.28125 1.0625 C 49.945312 0.164062 48.734375 -1.007812 47.640625 -2.46875 C 46.554688 -3.925781 45.59375 -5.570312 44.75 -7.40625 C 43.914062 -9.238281 43.15625 -11.054688 42.46875 -12.859375 C 41.789062 -14.660156 41.203125 -16.382812 40.703125 -18.03125 C 40.210938 -19.675781 39.78125 -21.054688 39.40625 -22.171875 C 39.65625 -20.679688 40.007812 -19.019531 40.46875 -17.1875 C 40.9375 -15.351562 41.476562 -13.503906 42.09375 -11.640625 C 42.71875 -9.773438 43.445312 -7.957031 44.28125 -6.1875 C 45.125 -4.425781 46.101562 -2.84375 47.21875 -1.4375 C 48.34375 -0.0390625 49.601562 1.070312 51 1.90625 C 52.394531 2.75 53.960938 3.171875 55.703125 3.171875 Z M 56.734375 5.21875 C 58.847656 4.84375 60.769531 4.050781 62.5 2.84375 C 64.238281 1.632812 65.804688 0.191406 67.203125 -1.484375 C 68.609375 -3.160156 69.804688 -4.992188 70.796875 -6.984375 C 71.359375 -8.046875 71.882812 -9.101562 72.375 -10.15625 C 71.945312 -9.039062 71.453125 -7.890625 70.890625 -6.703125 C 69.898438 -4.597656 68.71875 -2.660156 67.34375 -0.890625 C 65.976562 0.878906 64.410156 2.335938 62.640625 3.484375 C 60.878906 4.640625 58.910156 5.21875 56.734375 5.21875 Z M 54.78125 -4 C 54.03125 -4.1875 53.285156 -4.78125 52.546875 -5.78125 C 51.859375 -6.769531 51.328125 -7.789062 50.953125 -8.84375 C 51.140625 -8.289062 51.359375 -7.703125 51.609375 -7.078125 C 51.921875 -6.453125 52.273438 -5.859375 52.671875 -5.296875 C 53.078125 -4.742188 53.53125 -4.296875 54.03125 -3.953125 C 54.53125 -3.617188 55.085938 -3.453125 55.703125 -3.453125 C 56.703125 -3.453125 57.679688 -3.898438 58.640625 -4.796875 C 59.597656 -5.691406 60.492188 -6.789062 61.328125 -8.09375 C 62.171875 -9.40625 62.9375 -10.789062 63.625 -12.25 C 64.3125 -13.707031 64.898438 -15.023438 65.390625 -16.203125 C 64.898438 -15.085938 64.296875 -13.800781 63.578125 -12.34375 C 62.867188 -10.882812 62.09375 -9.53125 61.25 -8.28125 C 60.414062 -7.039062 59.515625 -5.984375 58.546875 -5.109375 C 57.585938 -4.242188 56.640625 -3.8125 55.703125 -3.8125 C 55.453125 -3.8125 55.144531 -3.875 54.78125 -4 Z M 37.546875 -15.5625 C 37.609375 -15.988281 37.671875 -16.40625 37.734375 -16.8125 C 37.796875 -17.21875 37.882812 -17.640625 38 -18.078125 L 37.640625 -19.1875 C 37.515625 -18.570312 37.40625 -17.96875 37.3125 -17.375 C 37.21875 -16.78125 37.109375 -16.175781 36.984375 -15.5625 Z M 72.75 -11.078125 C 72.625 -10.773438 72.5 -10.46875 72.375 -10.15625 C 72.5 -10.53125 72.625 -10.835938 72.75 -11.078125 Z M 73.125 -11.921875 C 73 -11.609375 72.875 -11.328125 72.75 -11.078125 C 72.875 -11.390625 73 -11.671875 73.125 -11.921875 Z M 73.40625 -12.578125 C 73.28125 -12.390625 73.1875 -12.171875 73.125 -11.921875 C 73.1875 -12.171875 73.28125 -12.390625 73.40625 -12.578125 Z M 73.40625 -12.578125 "/></g></g></g><path fill="#100f0d" d="M -8.039062 150.605469 C -8.039062 150.605469 19.949219 128.355469 24.910156 130.105469 C 29.867188 131.859375 42.851562 111.433594 46.933594 114.789062 C 51.015625 118.144531 51.894531 124.417969 56.121094 121.644531 C 60.351562 118.871094 84.125 93.046875 88.792969 98.300781 C 93.460938 103.554688 104.257812 118.144531 109.796875 117.121094 C 115.339844 116.101562 117.527344 124.082031 121.46875 124.101562 C 125.402344 124.125 129.636719 113.183594 133.71875 115.808594 C 137.800781 118.4375 143.199219 123.6875 147.574219 127.480469 C 151.949219 131.273438 171.933594 151.265625 169.015625 150.605469 C 166.097656 149.949219 161.429688 141.78125 155.304688 141.636719 C 149.179688 141.488281 147.574219 139.15625 151.367188 143.09375 C 155.160156 147.03125 160.117188 152.429688 153.117188 146.597656 C 146.117188 140.757812 145.242188 142.21875 139.699219 137.109375 C 134.15625 132.003906 134.886719 129.234375 128.613281 128.355469 C 122.339844 127.480469 120.082031 126.242188 123.289062 129.742188 C 126.5 133.246094 128.539062 136.234375 128.539062 136.234375 C 128.539062 136.234375 132.042969 141.488281 127.082031 136.234375 C 122.121094 130.984375 120.371094 129.085938 118.402344 128.355469 C 116.433594 127.628906 115.046875 123.90625 114.976562 123.394531 C 114.902344 122.886719 114.464844 118.726562 111.183594 118.726562 C 107.902344 118.726562 106.878906 118.800781 106.878906 120.042969 C 106.878906 121.28125 103.597656 119.820312 102.578125 118.945312 C 101.558594 118.070312 87.554688 99.105469 86.316406 101.367188 C 85.074219 103.625 85.804688 103.699219 85.804688 105.597656 C 85.804688 107.492188 89.890625 109.828125 91.566406 113.183594 C 93.242188 116.539062 91.347656 113.328125 93.460938 117.488281 C 95.578125 121.644531 97.617188 123.175781 92.511719 119.601562 C 87.410156 116.027344 85.878906 110.339844 83.617188 111.285156 C 81.355469 112.234375 83.253906 111.871094 82.085938 115.007812 C 80.917969 118.144531 83.179688 115.007812 83.105469 119.53125 C 83.035156 124.054688 89.742188 122.921875 93.242188 128.394531 C 96.742188 133.863281 97.726562 134.304688 100.679688 136.054688 C 103.636719 137.804688 107.355469 140.757812 104.074219 139.117188 C 100.792969 137.476562 94.664062 136.929688 91.601562 134.414062 C 88.539062 131.894531 87.335938 132.878906 87.007812 135.394531 C 86.679688 137.914062 91.710938 137.039062 91.273438 139.445312 C 90.835938 141.855469 93.132812 141.085938 98.496094 147.433594 C 103.855469 153.78125 104.949219 153.015625 99.804688 150.605469 C 94.664062 148.199219 93.789062 144.589844 88.539062 143.277344 C 83.289062 141.960938 82.960938 140.757812 77.273438 139.226562 C 71.582031 137.695312 75.300781 146.449219 70.707031 141.960938 C 66.113281 137.476562 60.316406 131.238281 57.144531 129.488281 C 53.972656 127.738281 54.082031 129.050781 51.238281 126.421875 C 48.390625 123.796875 46.421875 122.121094 47.625 124.984375 C 48.828125 127.847656 51.34375 130.363281 52.769531 133.535156 C 54.191406 136.710938 52.441406 135.78125 53.480469 137.3125 C 54.519531 138.84375 55.011719 139.171875 55.449219 140.539062 C 55.886719 141.910156 55.832031 142.015625 54.246094 140.429688 C 52.660156 138.84375 52.003906 138.789062 51.839844 137.695312 C 51.671875 136.601562 51.671875 137.914062 49.046875 136.164062 C 46.421875 134.414062 45.21875 133.371094 42.375 132.664062 C 39.53125 131.949219 40.242188 130.308594 38.601562 131.566406 C 36.960938 132.824219 36.90625 131.347656 36.359375 133.207031 C 35.8125 135.070312 38.492188 134.359375 39.914062 136.382812 C 41.335938 138.40625 39.3125 137.367188 43.632812 140.539062 C 47.953125 143.714844 45.710938 142.835938 48.007812 144.863281 C 50.304688 146.886719 52.113281 146.886719 53.480469 149.183594 C 54.847656 151.484375 56.652344 154.546875 53.972656 151.703125 C 51.292969 148.855469 50.964844 148.527344 48.226562 148.308594 C 45.492188 148.089844 45.054688 149.894531 42.976562 147.871094 C 40.898438 145.847656 34.71875 146.230469 32.09375 143.332031 C 29.46875 140.429688 27.335938 136.4375 23.066406 138.1875 C 18.800781 139.9375 15.902344 136.328125 14.097656 138.679688 C 12.292969 141.03125 13.878906 138.898438 16.339844 141.742188 C 18.800781 144.589844 19.675781 144.042969 20.222656 145.191406 C 20.769531 146.339844 20.769531 145.519531 18.144531 144.589844 C 15.519531 143.660156 16.777344 143.332031 15.519531 143.660156 C 14.261719 143.988281 11.691406 139.609375 6.496094 143.054688 C 1.300781 146.503906 2.832031 143.660156 -0.835938 146.121094 C -4.5 148.582031 -9.445312 152.632812 -8.039062 150.605469 " fill-opacity="1" fill-rule="nonzero"/></svg>